<?xml version="1.0" standalone="no"?>
<!DOCTYPE svg PUBLIC "-//W3C//DTD SVG 20010904//EN"
 "http://www.w3.org/TR/2001/REC-SVG-20010904/DTD/svg10.dtd">
<svg version="1.0" xmlns="http://www.w3.org/2000/svg"
 width="1056.000000pt" height="1056.000000pt" viewBox="0 0 1056.000000 1056.000000"
 preserveAspectRatio="xMidYMid meet">
<metadata>
Created by potrace 1.11, written by Peter Selinger 2001-2013
</metadata>
<g transform="translate(0.000000,1056.000000) scale(0.100000,-0.100000)"
fill="#000000" stroke="none">
<path d="M768 10280 c-6 -46 0 -5793 6 -5880 13 -190 16 -226 20 -255 3 -16 8
-57 12 -90 3 -33 8 -69 10 -80 2 -11 6 -36 10 -55 3 -19 9 -55 14 -80 5 -25
12 -61 14 -80 3 -19 13 -62 22 -95 8 -33 17 -71 19 -85 2 -14 16 -65 30 -115
14 -49 27 -94 29 -100 16 -61 40 -132 48 -143 6 -6 8 -12 5 -12 -6 0 10 -45
70 -200 78 -203 209 -467 342 -688 14 -24 31 -51 36 -60 36 -61 284 -404 305
-422 3 -3 18 -21 34 -40 109 -133 325 -357 465 -480 41 -36 80 -71 88 -78 7
-7 13 -11 13 -8 0 3 10 -5 23 -17 25 -24 78 -68 115 -95 13 -9 40 -30 60 -46
21 -15 105 -73 187 -127 83 -55 159 -106 170 -114 10 -8 23 -15 27 -15 4 0 37
-18 73 -40 36 -22 72 -40 79 -40 8 0 16 -4 18 -9 3 -8 212 -112 318 -158 120
-53 305 -123 323 -123 7 0 17 -3 21 -7 4 -5 11 -8 14 -8 4 -1 36 -10 72 -22
59 -20 189 -57 243 -70 12 -2 40 -9 62 -14 22 -5 53 -12 68 -14 16 -3 32 -7
37 -10 4 -3 28 -7 51 -10 24 -3 52 -8 61 -11 27 -8 81 -17 173 -30 11 -1 20
-3 20 -4 0 -1 18 -3 40 -5 22 -2 58 -6 80 -8 148 -18 255 -22 525 -20 168 1
325 4 350 7 25 3 65 7 90 10 64 7 140 16 175 22 17 2 46 7 65 10 51 7 290 56
345 71 11 2 27 6 35 7 19 3 139 39 245 73 44 14 85 26 90 27 6 1 19 7 30 13
11 6 22 11 25 10 9 -1 84 25 105 36 11 6 22 11 25 12 36 2 458 205 585 280 33
20 68 39 77 42 10 3 18 9 18 13 0 4 14 13 30 20 17 7 30 16 30 21 0 5 5 9 11
9 16 0 237 152 281 192 10 10 22 18 26 18 5 0 20 9 33 21 13 12 41 35 62 52
22 18 49 40 60 50 12 11 42 35 66 55 95 80 301 282 388 380 91 104 119 135
136 157 68 83 123 155 164 213 26 37 50 69 53 72 3 3 27 39 54 80 26 41 57 87
67 102 11 15 19 32 19 38 0 5 5 10 10 10 6 0 10 4 10 10 0 5 24 50 54 100 30
49 52 90 50 90 -3 0 3 12 13 27 26 37 88 166 85 176 -1 4 2 7 8 7 5 0 10 5 10
12 0 6 13 39 29 72 64 134 206 524 225 620 3 11 10 37 16 56 15 51 77 346 85
404 3 27 8 52 10 56 2 3 6 28 9 56 3 27 8 74 12 104 4 30 8 72 8 92 1 21 3 38
6 38 3 0 6 28 8 63 5 120 8 5968 2 5975 -3 4 -1993 8 -4422 7 l-4416 0 -4 -25z
m4053 -745 c3 -16 2 -37 -3 -46 -4 -9 -5 -19 -1 -22 5 -6 8 -197 3 -222 -1 -6
-2 -14 0 -20 2 -13 2 -208 0 -220 -1 -6 -2 -14 -1 -20 2 -14 2 -451 0 -461 -1
-5 -1 -13 1 -19 2 -13 2 -208 0 -220 -1 -6 -2 -14 0 -20 2 -13 2 -208 0 -220
-1 -6 -2 -14 -1 -20 2 -14 2 -451 0 -461 -1 -5 -1 -13 1 -19 2 -13 2 -208 0
-220 -1 -6 -2 -14 0 -20 2 -13 2 -208 0 -220 -1 -6 -2 -14 -1 -20 2 -14 2
-451 0 -461 -1 -5 -1 -13 1 -19 2 -13 2 -208 0 -220 -1 -6 -2 -14 0 -20 2 -13
2 -208 0 -220 -1 -6 -2 -14 -1 -20 2 -14 2 -451 0 -461 -1 -5 -1 -13 1 -19 2
-13 2 -208 0 -220 -1 -6 -2 -14 0 -20 2 -13 2 -208 0 -220 -1 -6 -2 -14 -1
-20 2 -14 2 -451 0 -461 -1 -5 -1 -13 1 -19 2 -13 2 -208 0 -220 -1 -6 -2 -14
0 -20 2 -13 2 -208 0 -220 -1 -6 -2 -14 -1 -20 2 -14 2 -451 0 -461 -1 -5 -1
-13 1 -19 2 -13 2 -208 0 -220 -1 -6 -2 -14 0 -20 2 -13 2 -208 0 -220 -1 -6
-2 -14 -1 -20 2 -14 2 -451 0 -461 -1 -5 -1 -13 1 -19 2 -13 2 -208 0 -220 -1
-6 -2 -14 0 -20 2 -13 2 -208 0 -220 -1 -6 -2 -14 -1 -20 2 -14 2 -451 0 -461
-1 -5 -1 -13 1 -19 2 -13 2 -208 0 -220 -1 -6 -2 -14 0 -20 4 -25 1 -216 -4
-224 -4 -5 -3 -12 1 -14 5 -3 7 -80 5 -171 l-3 -166 -37 5 c-20 2 -59 7 -87
10 -27 3 -57 8 -65 10 -8 2 -35 7 -60 10 -25 4 -76 13 -115 22 -38 8 -81 17
-95 20 -146 30 -424 120 -590 190 -327 139 -584 293 -885 528 -120 94 -361
324 -457 437 -46 53 -74 87 -96 113 -51 60 -162 213 -162 222 0 6 -4 13 -8 15
-16 6 -123 174 -199 313 -75 137 -204 417 -218 475 -2 8 -22 66 -44 127 -22
62 -38 113 -35 113 3 0 2 6 -3 13 -8 12 -13 32 -15 55 -1 6 -6 12 -11 12 -6 0
-8 3 -5 6 3 3 -1 31 -9 62 -8 31 -16 64 -18 72 -24 110 -36 170 -40 195 -2 16
-7 41 -10 55 -3 14 -7 48 -10 75 -4 28 -8 61 -10 75 -6 38 -14 126 -21 220
-10 158 -7 5132 4 5139 6 3 750 6 1654 6 l1643 0 6 -30z m2796 16 c-10 -12
-1068 -1070 -1908 -1907 l-146 -146 0 1030 0 1031 21 3 c12 2 476 3 1033 3
882 0 1010 -2 1000 -14z m1251 4 c4 -3 7 -290 7 -636 l0 -630 -1630 -1627
c-896 -895 -1642 -1637 -1656 -1649 l-26 -22 -1 727 0 727 1561 1557 c878 876
1570 1558 1582 1560 37 5 156 1 163 -7z m7 -3032 l0 -696 -888 -886 c-1721
-1718 -2417 -2411 -2421 -2411 -2 0 -3 316 -3 701 l0 701 901 900 c496 494
949 947 1009 1005 59 58 107 107 107 107 0 1 100 102 223 224 122 122 411 410
642 641 231 230 422 417 425 414 3 -2 5 -318 5 -700z m-1 -1896 c-2 -140 -11
-312 -19 -371 -17 -126 -27 -194 -29 -211 -10 -60 -19 -112 -23 -130 -3 -11
-6 -29 -8 -40 -3 -18 -40 -163 -80 -310 -25 -91 -111 -321 -166 -440 -13 -27
-24 -52 -24 -55 -3 -15 -133 -259 -156 -292 -11 -14 -19 -29 -19 -32 0 -11
-112 -181 -121 -184 -5 -2 -9 -8 -9 -13 0 -8 -65 -105 -80 -119 -3 -3 -27 -34
-55 -70 -86 -112 -173 -209 -305 -340 -115 -113 -172 -166 -238 -218 -22 -19
-50 -41 -61 -50 -11 -10 -30 -25 -43 -34 -77 -56 -136 -100 -153 -113 -11 -9
-37 -26 -57 -37 -21 -12 -38 -25 -38 -30 0 -4 -6 -8 -14 -8 -8 0 -22 -7 -30
-16 -9 -8 -16 -12 -16 -7 0 4 -4 3 -8 -3 -8 -12 -129 -84 -142 -84 -4 0 -10
-4 -12 -8 -6 -14 -321 -165 -426 -204 -32 -11 -68 -25 -82 -31 -14 -6 -27 -11
-30 -12 -3 0 -36 -11 -75 -25 -38 -13 -72 -23 -75 -23 -3 0 -16 -4 -30 -9 -14
-5 -32 -11 -40 -13 -8 -2 -60 -15 -114 -29 -55 -15 -111 -28 -125 -31 -14 -3
-37 -7 -51 -10 -14 -3 -36 -7 -50 -10 -14 -3 -34 -7 -45 -9 -43 -8 -211 -30
-235 -31 l-25 0 -1 248 -2 247 830 828 c457 455 838 835 847 845 9 11 43 45
76 77 33 33 396 395 807 805 411 410 749 745 751 745 2 0 3 -64 1 -143z"/>
</g>
</svg>
