<svg width="159" height="48" viewBox="0 0 159 48" fill="none" xmlns="http://www.w3.org/2000/svg">
<path fill-rule="evenodd" clip-rule="evenodd" d="M14.2232 32.3483C6.5699 32.3483 0.395813 26.1545 0.395813 18.4768V0.798828H28.0506V18.4768C28.0506 26.1545 21.8122 32.3483 14.2232 32.3483ZM2.7111 3.12149V18.4768C2.7111 24.8641 7.85617 30.0256 14.2232 30.0256C20.5902 30.0256 25.7353 24.8641 25.7353 18.4768V3.12149H2.7111Z" fill="#FE1A58"/>
<path d="M15.3808 1.96021H13.0656V30.9934H15.3808V1.96021Z" fill="#FE1A58"/>
<path fill-rule="evenodd" clip-rule="evenodd" d="M13.3843 11.5668L24.1166 0.860848L25.763 2.5032L15.0307 13.2091L13.3843 11.5668Z" fill="#FE1A58"/>
<path fill-rule="evenodd" clip-rule="evenodd" d="M13.35 19.4541L26.1288 6.70679L27.7752 8.34914L14.9964 21.0965L13.35 19.4541Z" fill="#FE1A58"/>
<path fill-rule="evenodd" clip-rule="evenodd" d="M13.3766 27.1201L26.1553 14.3728L27.8017 16.0152L15.023 28.7625L13.3766 27.1201Z" fill="#FE1A58"/>
<path fill-rule="evenodd" clip-rule="evenodd" d="M55.3034 19.0026V15.8398H48.1906V2.12549H44.5837V19.0026H55.3034Z" fill="#333333"/>
<path fill-rule="evenodd" clip-rule="evenodd" d="M68.8984 19.0026V6.78125H65.6951V15.0554C65.1402 15.7638 64.1566 16.447 62.9206 16.447C61.5586 16.447 60.6758 15.8904 60.6758 14.1951V6.78125H57.4725V15.4602C57.4725 17.8387 58.7337 19.3063 61.4073 19.3063C63.3999 19.3063 64.8628 18.3701 65.6951 17.4591V19.0026H68.8984Z" fill="#333333"/>
<path fill-rule="evenodd" clip-rule="evenodd" d="M83.6789 19.0026V2.12549H80.4504V8.35005C79.4919 7.08489 78.1299 6.47762 76.6922 6.47762C73.5898 6.47762 71.2946 8.90671 71.2946 12.8793C71.2946 16.9784 73.6403 19.3063 76.6922 19.3063C78.1803 19.3063 79.4919 18.6484 80.4504 17.4339V19.0026H83.6789ZM77.7011 16.447C75.8599 16.447 74.5987 15.0048 74.5987 12.8793C74.5987 10.7791 75.8599 9.33687 77.7011 9.33687C78.7605 9.33687 79.9207 9.91884 80.4504 10.7285V15.0554C79.9207 15.8651 78.7605 16.447 77.7011 16.447Z" fill="#333333"/>
<path fill-rule="evenodd" clip-rule="evenodd" d="M86.857 2.12549H90.0603V19.0026H86.857V2.12549Z" fill="#333333"/>
<path fill-rule="evenodd" clip-rule="evenodd" d="M98.8882 19.3062C102.924 19.3062 105.345 16.3457 105.345 12.8792C105.345 9.4127 102.924 6.47754 98.8882 6.47754C94.8778 6.47754 92.4564 9.4127 92.4564 12.8792C92.4564 16.3457 94.8778 19.3062 98.8882 19.3062ZM98.8882 16.447C96.8956 16.447 95.7858 14.8023 95.7858 12.8792C95.7858 10.9815 96.8956 9.33679 98.8882 9.33679C100.906 9.33679 102.016 10.9815 102.016 12.8792C102.016 14.8023 100.906 16.447 98.8882 16.447Z" fill="#333333"/>
<path fill-rule="evenodd" clip-rule="evenodd" d="M121.866 19.0026L125.574 6.78125H122.219L119.949 15.0048L117.276 6.78125H114.425L111.752 15.0048L109.482 6.78125H106.152L109.86 19.0026H113.29L115.863 10.6779L118.436 19.0026H121.866Z" fill="#333333"/>
<path fill-rule="evenodd" clip-rule="evenodd" d="M52.3271 42.5007C57.4473 42.5007 59.9192 39.6162 59.9192 35.4412V25.3199H56.2619V35.34C56.2619 37.6932 54.9251 39.3126 52.3271 39.3126C49.7292 39.3126 48.3672 37.6932 48.3672 35.34V25.3199H44.7351V35.4412C44.7351 39.6162 47.2069 42.5007 52.3271 42.5007Z" fill="#333333"/>
<path fill-rule="evenodd" clip-rule="evenodd" d="M74.624 42.1971V33.5688C74.624 31.1903 73.3376 29.6721 70.6388 29.6721C68.6714 29.6721 67.158 30.6336 66.3761 31.5445V29.9758H63.1729V42.1971H66.3761V33.9483C66.931 33.2399 67.8895 32.5314 69.1506 32.5314C70.5127 32.5314 71.3955 33.1133 71.3955 34.8086V42.1971H74.624Z" fill="#333333"/>
<path fill-rule="evenodd" clip-rule="evenodd" d="M79.3658 28.6599C80.4252 28.6599 81.2827 27.7996 81.2827 26.7368C81.2827 25.6741 80.4252 24.8391 79.3658 24.8391C78.3317 24.8391 77.4741 25.6741 77.4741 26.7368C77.4741 27.7996 78.3317 28.6599 79.3658 28.6599ZM80.9801 42.197V29.9756H77.7768V42.197H80.9801Z" fill="#333333"/>
<path fill-rule="evenodd" clip-rule="evenodd" d="M90.7665 42.1971L95.6597 29.9757H92.2294L89.0261 38.4775L85.8481 29.9757H82.4178L87.311 42.1971H90.7665Z" fill="#333333"/>
<path fill-rule="evenodd" clip-rule="evenodd" d="M102.823 42.5008C104.715 42.5008 106.632 41.9188 107.842 40.8055L106.405 38.68C105.623 39.4391 104.21 39.8693 103.176 39.8693C101.108 39.8693 99.8971 38.6294 99.6701 37.1365H108.725V36.3774C108.725 32.4049 106.278 29.6721 102.621 29.6721C98.9386 29.6721 96.3155 32.5314 96.3155 36.0738C96.3155 39.9958 99.1152 42.5008 102.823 42.5008ZM105.648 34.9099H99.6449C99.771 33.6953 100.629 32.3036 102.621 32.3036C104.74 32.3036 105.547 33.7459 105.648 34.9099Z" fill="#333333"/>
<path fill-rule="evenodd" clip-rule="evenodd" d="M114.249 42.1971V34.1255C114.778 33.3411 116.191 32.7338 117.25 32.7338C117.629 32.7338 117.906 32.7591 118.133 32.8097V29.6721C116.62 29.6721 115.132 30.5577 114.249 31.6205V29.9758H111.046V42.1971H114.249Z" fill="#333333"/>
<path fill-rule="evenodd" clip-rule="evenodd" d="M124.514 42.5008C127.894 42.5008 129.811 40.8561 129.811 38.6041C129.811 33.67 122.572 35.1882 122.572 33.3917C122.572 32.7085 123.329 32.2024 124.489 32.2024C125.977 32.2024 127.365 32.8603 128.096 33.6194L129.382 31.3421C128.172 30.3806 126.532 29.6721 124.489 29.6721C121.261 29.6721 119.495 31.4686 119.495 33.5182C119.495 38.3258 126.709 36.6811 126.709 38.68C126.709 39.4391 126.053 39.9705 124.666 39.9705C123.152 39.9705 121.362 39.1355 120.454 38.2752L119.066 40.603C120.353 41.7923 122.396 42.5008 124.514 42.5008Z" fill="#333333"/>
<path fill-rule="evenodd" clip-rule="evenodd" d="M133.746 28.6599C134.805 28.6599 135.663 27.7996 135.663 26.7368C135.663 25.6741 134.805 24.8391 133.746 24.8391C132.712 24.8391 131.854 25.6741 131.854 26.7368C131.854 27.7996 132.712 28.6599 133.746 28.6599ZM135.36 42.197V29.9756H132.157V42.197H135.36Z" fill="#333333"/>
<path fill-rule="evenodd" clip-rule="evenodd" d="M142.624 42.5008C143.961 42.5008 144.819 42.1465 145.298 41.7164L144.617 39.262C144.44 39.4644 143.986 39.6415 143.507 39.6415C142.801 39.6415 142.397 39.0596 142.397 38.2752V32.7844H144.869V29.9757H142.397V26.6357H139.194V29.9757H137.176V32.7844H139.194V39.1355C139.194 41.3368 140.38 42.5008 142.624 42.5008Z" fill="#333333"/>
<path fill-rule="evenodd" clip-rule="evenodd" d="M146.66 46.9541C147.038 47.0806 147.871 47.1565 148.224 47.1565C150.317 47.1059 151.932 46.4986 152.84 44.196L158.565 29.9757H155.135L151.932 38.4775L148.753 29.9757H145.323L150.267 42.3489L149.813 43.4116C149.51 44.0695 148.955 44.2972 148.123 44.2972C147.82 44.2972 147.391 44.2213 147.114 44.0948L146.66 46.9541Z" fill="#333333"/>
</svg>
