<svg width="29" height="33" viewBox="0 0 29 33" fill="none" xmlns="http://www.w3.org/2000/svg">
<path fill-rule="evenodd" clip-rule="evenodd" d="M14.2232 32.3483C6.5699 32.3483 0.395813 26.1545 0.395813 18.4768V0.798828H28.0506V18.4768C28.0506 26.1545 21.8122 32.3483 14.2232 32.3483ZM2.7111 3.12149V18.4768C2.7111 24.8641 7.85617 30.0256 14.2232 30.0256C20.5902 30.0256 25.7353 24.8641 25.7353 18.4768V3.12149H2.7111Z" fill="#FE1A58"/>
<path d="M15.3808 1.96021H13.0656V30.9934H15.3808V1.96021Z" fill="#FE1A58"/>
<path fill-rule="evenodd" clip-rule="evenodd" d="M13.3843 11.5668L24.1166 0.860848L25.763 2.5032L15.0307 13.2091L13.3843 11.5668Z" fill="#FE1A58"/>
<path fill-rule="evenodd" clip-rule="evenodd" d="M13.35 19.4541L26.1288 6.70679L27.7752 8.34914L14.9964 21.0965L13.35 19.4541Z" fill="#FE1A58"/>
<path fill-rule="evenodd" clip-rule="evenodd" d="M13.3766 27.1201L26.1553 14.3728L27.8017 16.0152L15.023 28.7625L13.3766 27.1201Z" fill="#FE1A58"/>
</svg>
