<svg width="400" height="456" viewBox="0 0 400 456" fill="none" xmlns="http://www.w3.org/2000/svg">
<g opacity="0.05">
<path fill-rule="evenodd" clip-rule="evenodd" d="M200 455.077C89.3023 455.077 0 365.736 0 254.992V0H400V254.992C400 365.736 309.767 455.077 200 455.077ZM33.4884 33.5026V254.992C33.4884 347.124 107.907 421.574 200 421.574C292.093 421.574 366.512 347.124 366.512 254.992V33.5026H33.4884Z" fill="#3C444D"/>
<path d="M217.148 16.7515H183.751V435.534H217.148V16.7515Z" fill="#3C444D"/>
<path fill-rule="evenodd" clip-rule="evenodd" d="M188.349 155.319L343.154 0.894075L366.903 24.5837L212.097 179.008L188.349 155.319Z" fill="#3C444D"/>
<path fill-rule="evenodd" clip-rule="evenodd" d="M187.855 269.088L372.179 85.2179L395.927 108.908L211.603 292.778L187.855 269.088Z" fill="#3C444D"/>
<path fill-rule="evenodd" clip-rule="evenodd" d="M188.237 379.665L372.561 195.794L396.309 219.484L211.985 403.354L188.237 379.665Z" fill="#3C444D"/>
</g>
</svg>
