<svg width="34" height="34" viewBox="0 0 34 34" fill="none" xmlns="http://www.w3.org/2000/svg">
<path d="M27.88 15.3H6.11998C5.18158 15.3 5.09998 16.0599 5.09998 17C5.09998 17.9401 5.18158 18.7 6.11998 18.7H27.88C28.8184 18.7 28.9 17.9401 28.9 17C28.9 16.0599 28.8184 15.3 27.88 15.3ZM27.88 22.1H6.11998C5.18158 22.1 5.09998 22.8599 5.09998 23.8C5.09998 24.7401 5.18158 25.5 6.11998 25.5H27.88C28.8184 25.5 28.9 24.7401 28.9 23.8C28.9 22.8599 28.8184 22.1 27.88 22.1ZM6.11998 11.9H27.88C28.8184 11.9 28.9 11.1401 28.9 10.2C28.9 9.2599 28.8184 8.5 27.88 8.5H6.11998C5.18158 8.5 5.09998 9.2599 5.09998 10.2C5.09998 11.1401 5.18158 11.9 6.11998 11.9Z" fill="black"/>
</svg>
